HIERARCHY
ROOT Hips
{
	OFFSET -3.958830 18.904000 13.208200
	CHANNELS 6 Xposition Yposition Zposition Zrotation Yrotation Xrotation 
	JOINT LHipJoint
	{
		OFFSET 0.000000 0.000000 0.000000
		CHANNELS 3 Zrotation Yrotation Xrotation
		JOINT LeftUpLeg
		{
			OFFSET 1.800000 -1.400000 0.085000
			CHANNELS 3 Zrotation Yrotation Xrotation
			JOINT LeftLeg
			{
				OFFSET 2.215000 -6.000000 0.000000
				CHANNELS 3 Zrotation Yrotation Xrotation
				JOINT LeftFoot
				{
					OFFSET 2.500000 -6.900000 0.000000
					CHANNELS 3 Zrotation Yrotation Xrotation
					JOINT LeftToeBase
					{
						OFFSET 0.200000 -0.500000 1.950000
						CHANNELS 3 Zrotation Yrotation Xrotation
						End Site
						{
							OFFSET 0.000000 0.000000 0.000000
						}
					}
				}
			}
		}
	}
	JOINT RHipJoint
	{
		OFFSET 0.000000 0.000000 0.000000
		CHANNELS 3 Zrotation Yrotation Xrotation
		JOINT RightUpLeg
		{
			OFFSET -1.800000 -1.400000 0.085000
			CHANNELS 3 Zrotation Yrotation Xrotation
			JOINT RightLeg
			{
				OFFSET -2.215000 -6.000000 0.000000
				CHANNELS 3 Zrotation Yrotation Xrotation
				JOINT RightFoot
				{
					OFFSET -2.500000 -6.900000 0.000000
					CHANNELS 3 Zrotation Yrotation Xrotation
					JOINT RightToeBase
					{
						OFFSET -0.200000 -0.500000 1.950000
						CHANNELS 3 Zrotation Yrotation Xrotation
						End Site
						{
							OFFSET 0.000000 0.000000 0.000000
						}
					}
				}
			}
		}
	}
	JOINT LowerBack
	{
		OFFSET 0.000000 0.000000 0.000000
		CHANNELS 3 Zrotation Yrotation Xrotation
		JOINT Spine
		{
			OFFSET -0.087000 1.940000 -0.288900
			CHANNELS 3 Zrotation Yrotation Xrotation
			JOINT Spine1
			{
				OFFSET 0.000000 1.950000 0.060000
				CHANNELS 3 Zrotation Yrotation Xrotation
				JOINT Neck
				{
					OFFSET 0.000000 0.000000 0.000000
					CHANNELS 3 Zrotation Yrotation Xrotation
					JOINT Neck1
					{
						OFFSET 0.000000 1.600000 0.340000
						CHANNELS 3 Zrotation Yrotation Xrotation
						JOINT Head
						{
							OFFSET 0.000000 1.667000 -0.240000
							CHANNELS 3 Zrotation Yrotation Xrotation
							End Site
							{
								OFFSET 0.000000 0.000000 0.000000
							}
						}
					}
				}
				JOINT LeftShoulder
				{
					OFFSET 0.000000 0.000000 0.000000
					CHANNELS 3 Zrotation Yrotation Xrotation
					JOINT LeftArm
					{
						OFFSET 2.700000 1.550000 -0.730000
						CHANNELS 3 Zrotation Yrotation Xrotation
						JOINT LeftForeArm
						{
							OFFSET 5.450000 0.000000 0.000000
							CHANNELS 3 Zrotation Yrotation Xrotation
							JOINT LeftHand
							{
								OFFSET 3.450000 0.000000 0.000000
								CHANNELS 3 Zrotation Yrotation Xrotation
								JOINT LeftHandIndex1
								{
									OFFSET 0.750000 0.000000 0.000000
									CHANNELS 3 Zrotation Yrotation Xrotation
									End Site
									{
										OFFSET 0.000000 0.000000 0.000000
									}
								}
							}
						}
					}
				}
				JOINT RightShoulder
				{
					OFFSET 0.000000 0.000000 0.000000
					CHANNELS 3 Zrotation Yrotation Xrotation
					JOINT RightArm
					{
						OFFSET -2.700000 1.550000 -0.730000
						CHANNELS 3 Zrotation Yrotation Xrotation
						JOINT RightForeArm
						{
							OFFSET -5.450000 0.000000 0.000000
							CHANNELS 3 Zrotation Yrotation Xrotation
							JOINT RightHand
							{
								OFFSET -3.450000 0.000000 0.000000
								CHANNELS 3 Zrotation Yrotation Xrotation
								JOINT RightHandIndex1
								{
									OFFSET -0.750000 0.000000 0.000000
									CHANNELS 3 Zrotation Yrotation Xrotation
									End Site
									{
										OFFSET 0.000000 0.000000 0.000000
									}
								}
							}
						}
					}
				}
			}
		}
	}
}
MOTION
Frames: 10
Frame Time: 0.016667
-0.769270 17.040100 -1.931810 2.375999 -17.513004 9.224431 -15.085335 11.339304 5.181999 7.199683 -7.859601 -44.161595 -11.407714 4.331505 9.623459 -1.586153 3.865080 3.591511 0.349730 -0.283480 0.326290 18.559053 -10.378863 2.355959 -13.011428 4.570540 -26.932938 3.920529 -10.088403 41.267115 -0.566374 -6.543711 2.426691 0.177690 0.690730 0.082670 -4.159469 -0.849045 -8.042825 15.914690 1.102967 18.807200 -2.878423 4.010653 5.770672 0.435823 -5.262783 -7.189632 -8.888823 3.867757 22.720534 -13.032990 5.749040 -16.328150 -22.733086 -4.670202 0.521579 -25.022955 4.723638 -9.286699 -10.054375 -60.821549 1.934905 -3.948111 2.603638 1.017590 0.459400 -0.394960 0.273400 20.977571 8.998822 5.854702 57.709627 2.745535 -10.323871 68.893086 54.196067 26.283437 1.459748 -1.609777 -0.877270 0.758870 0.209750 -0.614180 
-0.734930 16.944410 -1.928700 2.654174 -16.954349 11.009258 -15.186398 11.032373 5.521690 8.749641 -8.118781 -47.351635 -12.154458 3.960073 7.247358 -1.551383 3.855120 3.554652 0.448500 -0.131930 0.327480 18.532020 -10.354609 2.030025 -12.472765 3.858401 -24.888424 3.926006 -9.054074 36.521364 -0.390727 -5.911296 2.601515 0.287280 0.709570 0.159240 -4.017800 -0.699649 -7.916122 13.463098 2.826764 14.715348 -1.209163 4.678387 6.385505 -0.142108 -4.596868 -6.403419 -7.329822 3.301739 20.597047 -12.419940 5.429240 -12.725490 -22.418710 -3.216951 -0.167163 -24.955926 3.339474 -8.505100 -2.175054 -63.710681 -1.861551 -4.018271 2.781632 0.842710 0.557460 -0.451490 0.301220 21.903377 7.308527 5.365799 56.682963 1.737929 -9.086312 68.951329 53.363826 26.030055 1.399389 -1.834454 -0.779540 0.643660 0.166020 -0.570950 
-0.697380 16.902470 -1.933370 2.120340 -16.924800 11.555117 -15.244173 10.857232 5.800133 11.313389 -7.754106 -50.126683 -12.922371 4.957603 10.586998 -1.613484 4.527283 3.325974 0.422660 -0.188860 0.324260 18.523360 -10.364176 1.825116 -11.334340 3.579905 -22.682938 3.399682 -8.061388 32.947922 -0.249208 -5.365877 2.832575 0.329920 0.814660 0.139810 -3.948598 -0.568033 -7.864014 12.568504 3.884787 13.672181 -0.571050 5.561137 5.818880 -0.468530 -4.418621 -5.648036 -6.737845 2.587911 19.322270 -12.690540 4.657890 -12.108050 -23.060322 -2.024332 -1.108865 -24.735541 2.185892 -7.980943 7.145939 -66.845098 -7.190670 -4.112009 2.618060 0.855530 0.636320 -0.525410 0.305380 23.102312 6.173935 5.068108 55.400920 0.967113 -8.631938 66.615516 52.705689 24.769420 1.287773 -1.801713 -0.888280 0.751330 0.217050 -0.605950 
-0.633630 16.913280 -1.926770 0.981314 -16.325146 10.510207 -15.233182 10.735836 6.070415 14.140748 -7.268122 -51.786701 -14.591183 7.199894 18.051586 -1.396590 5.721995 2.829399 0.431320 -0.178960 0.319080 18.552883 -10.394327 1.740184 -10.441652 3.397902 -20.248793 3.805704 -7.955720 31.479556 -0.268247 -5.200348 2.890533 0.298370 0.768930 0.162210 -4.017751 -0.401211 -8.007406 13.891892 3.896508 15.573236 -1.107121 6.181724 4.189582 -0.484767 -4.779271 -5.172856 -7.336446 1.680464 19.870105 -12.324250 3.657740 -13.200810 -24.189185 -1.147014 -1.924568 -26.029890 0.459113 -8.127014 17.056348 -68.775189 -13.275284 -4.032997 2.532035 0.871630 0.582530 -0.478580 0.304120 23.931347 5.690332 4.905215 54.044295 0.697180 -8.919985 60.962559 50.853350 21.381460 1.295419 -1.775467 -0.835520 0.717540 0.211640 -0.585010 
-0.532880 16.950770 -1.901240 -0.488839 -15.205110 9.349371 -15.185770 10.537305 6.306409 15.979092 -7.363661 -53.061596 -15.217776 10.170731 28.084178 -1.124342 7.460784 2.190778 0.380030 -0.234010 0.252280 18.631491 -10.400188 1.712523 -10.210874 3.416326 -19.303119 4.350961 -8.497519 32.438583 -0.311200 -5.413438 2.867965 0.249620 0.792470 0.131970 -4.220264 -0.075326 -8.188617 16.614989 3.121451 17.075202 -2.729988 6.225310 2.754877 -0.014197 -4.938430 -5.150156 -7.732931 1.609231 21.253492 -11.386590 3.246550 -12.957130 -25.616318 -1.423555 -1.959639 -28.164369 0.062180 -8.917955 27.716926 -70.799910 -20.596550 -3.960105 2.314101 0.898520 0.565430 -0.489610 0.314910 24.134421 6.033228 4.749434 52.252138 1.582881 -8.671996 54.071509 47.472989 17.178132 1.281518 -1.689050 -0.854410 0.743750 0.235790 -0.572390 
-0.458390 16.985930 -1.864330 -1.934957 -14.878306 8.173378 -15.195890 10.424546 6.353455 18.012700 -6.853007 -52.153329 -16.589406 13.699400 36.385421 -0.759219 9.356335 1.500732 0.358400 -0.253410 0.222240 18.663701 -10.254577 1.773073 -10.141406 3.991972 -20.364480 4.894844 -9.514345 36.283671 -0.434140 -6.017770 2.647030 0.222960 0.787720 0.135610 -4.279149 0.002396 -8.334048 17.582944 2.817075 17.386940 -2.827144 6.195832 2.551801 0.314202 -4.696250 -5.016386 -7.588681 1.998364 22.807898 -10.360860 3.347460 -12.068930 -26.465109 -1.325307 -1.750947 -31.636870 -0.006825 -9.964757 36.760683 -72.149560 -27.304145 -3.895465 2.131718 0.887460 0.553510 -0.490860 0.304750 24.226203 5.795363 4.262912 50.347780 2.235058 -8.309945 49.673215 43.774014 14.197467 1.294411 -1.654361 -0.832770 0.718420 0.252460 -0.560630 
-0.392030 17.033180 -1.826440 -1.436337 -14.796055 7.140722 -15.306645 10.426071 6.180449 18.235794 -6.749372 -49.720664 -18.634770 17.332295 42.036295 -0.327435 10.843520 0.999135 0.382900 -0.194020 0.206550 18.590783 -9.880416 2.030253 -13.098636 5.023211 -24.519850 6.648581 -11.813425 42.548404 -0.663263 -7.235916 2.212866 0.227250 0.781370 0.172450 -4.032423 -0.343437 -8.487900 14.590487 3.397034 16.922179 -1.126565 6.124434 2.878323 0.365801 -3.962954 -4.723668 -6.624034 2.528845 23.833757 -9.722730 3.896710 -10.657430 -26.643335 -0.939845 -1.424849 -35.501287 -0.465170 -10.737720 38.971834 -72.574775 -29.404375 -3.889499 2.128655 0.812940 0.577470 -0.483680 0.316960 24.562020 5.246201 3.382784 48.438412 3.191901 -7.724187 44.682298 39.759229 11.183480 1.308190 -1.656510 -0.753640 0.661120 0.230820 -0.524900 
-0.326030 17.084660 -1.784910 -0.861676 -14.455105 6.105565 -15.395532 10.531662 5.911986 17.471521 -6.832508 -46.835103 -19.171743 20.289482 47.114026 0.078312 11.980882 0.657606 0.407820 -0.161360 0.172960 18.520377 -9.518928 2.338806 -15.720196 5.598931 -27.987607 8.260045 -13.841149 46.867102 -0.865485 -8.202050 1.891315 0.212490 0.765890 0.177630 -3.802059 -0.811778 -8.612742 12.015394 3.387283 16.582893 0.384218 5.575538 3.182307 -0.017320 -4.525146 -4.882319 -8.058214 3.523924 25.397375 -7.960910 3.698500 -9.065880 -25.077210 0.118464 -0.806694 -40.738089 -0.974944 -11.221871 33.704724 -72.677186 -26.639297 -3.842934 2.314506 0.783400 0.550850 -0.480790 0.349730 24.046703 4.944878 2.802260 48.003067 4.288786 -7.276311 39.946043 36.782124 8.973490 1.355819 -1.649730 -0.697090 0.605810 0.196590 -0.485350 
-0.242450 17.121510 -1.726100 -0.034306 -12.675821 5.452140 -15.444829 10.776124 5.416599 14.307059 -7.798294 -43.371486 -16.631476 20.579904 51.105700 0.236151 12.338296 0.552040 0.404700 -0.157350 0.126730 18.461222 -9.272883 2.679335 -19.183291 5.185102 -30.701673 11.056085 -16.219562 48.558740 -1.001470 -8.969548 1.621777 0.206350 0.767970 0.187380 -3.608485 -1.308173 -8.560503 9.534287 2.885599 15.291909 1.477297 4.371073 3.816229 -0.371557 -4.867216 -5.061247 -8.914706 4.448591 25.719749 -6.944490 3.672050 -7.901670 -22.943399 1.134478 -0.200913 -44.243452 -1.240046 -10.714464 17.932414 -71.758857 -16.468172 -3.897375 2.670895 0.755420 0.550990 -0.500180 0.353890 23.001984 4.091050 2.273372 48.847433 4.850074 -7.151051 36.391135 35.913028 7.823264 1.374452 -1.640189 -0.669350 0.562720 0.207450 -0.465150 
-0.157620 17.140590 -1.666970 -0.232613 -10.854538 5.439017 -15.418685 11.088830 4.738713 11.584168 -7.729322 -38.839003 -12.630615 18.889213 52.628545 0.156730 12.052532 0.664831 0.421400 -0.150170 0.114160 18.469964 -9.167022 3.053894 -21.233327 4.805828 -33.077515 13.945754 -17.730766 48.033487 -1.047893 -9.323165 1.490059 0.239830 0.824860 0.203250 -3.625123 -1.563840 -8.339449 8.829937 2.073909 13.175625 2.271592 3.019942 4.756983 -0.912470 -4.978385 -4.800906 -9.192416 4.812273 25.328280 -6.103300 3.051130 -6.572450 -21.087112 2.121211 0.028469 -45.432669 -1.890651 -9.083538 0.762658 -67.325164 -4.895722 -4.003003 2.895529 0.715420 0.591210 -0.542410 0.376710 22.427124 2.835980 1.478957 48.089800 5.694702 -6.404397 34.975189 35.751651 7.562463 1.359234 -1.663612 -0.678000 0.575530 0.211820 -0.448530 
